<svg width="31" height="30" viewBox="0 0 31 30" fill="none" xmlns="http://www.w3.org/2000/svg">
<path fill-rule="evenodd" clip-rule="evenodd" d="M2.375 15C2.375 14.7513 2.47377 14.5129 2.64959 14.3371C2.8254 14.1612 3.06386 14.0625 3.3125 14.0625H25.4244L19.5237 8.16371C19.3477 7.98768 19.2488 7.74892 19.2488 7.49996C19.2488 7.25101 19.3477 7.01225 19.5237 6.83621C19.6998 6.66018 19.9385 6.56128 20.1875 6.56128C20.4365 6.56128 20.6752 6.66018 20.8513 6.83621L28.3513 14.3362C28.4386 14.4233 28.5078 14.5268 28.5551 14.6407C28.6023 14.7545 28.6267 14.8766 28.6267 15C28.6267 15.1233 28.6023 15.2454 28.5551 15.3593C28.5078 15.4732 28.4386 15.5766 28.3513 15.6637L20.8513 23.1637C20.6752 23.3398 20.4365 23.4386 20.1875 23.4386C19.9385 23.4386 19.6998 23.3398 19.5237 23.1637C19.3477 22.9877 19.2488 22.7489 19.2488 22.5C19.2488 22.251 19.3477 22.0123 19.5237 21.8362L25.4244 15.9375H3.3125C3.06386 15.9375 2.8254 15.8387 2.64959 15.6629C2.47377 15.4871 2.375 15.2486 2.375 15V15Z" fill="#F7FBFF"/>
</svg>
