<svg width="38" height="38" viewBox="0 0 38 38" fill="none" xmlns="http://www.w3.org/2000/svg">
<path fill-rule="evenodd" clip-rule="evenodd" d="M4.75 5.9375C4.43506 5.9375 4.13301 6.06261 3.91031 6.28531C3.68761 6.50801 3.5625 6.81006 3.5625 7.125V9.5C3.5625 9.81494 3.68761 10.117 3.91031 10.3397C4.13301 10.5624 4.43506 10.6875 4.75 10.6875H7.125C7.43994 10.6875 7.74199 10.5624 7.96469 10.3397C8.18739 10.117 8.3125 9.81494 8.3125 9.5V7.125C8.3125 6.81006 8.18739 6.50801 7.96469 6.28531C7.74199 6.06261 7.43994 5.9375 7.125 5.9375H4.75ZM7.125 7.125H4.75V9.5H7.125V7.125Z" fill="#020E33"/>
<path d="M11.875 8.3125C11.875 7.99756 12.0001 7.69551 12.2228 7.47281C12.4455 7.25011 12.7476 7.125 13.0625 7.125H34.4375C34.7524 7.125 35.0545 7.25011 35.2772 7.47281C35.4999 7.69551 35.625 7.99756 35.625 8.3125C35.625 8.62744 35.4999 8.92949 35.2772 9.15219C35.0545 9.37489 34.7524 9.5 34.4375 9.5H13.0625C12.7476 9.5 12.4455 9.37489 12.2228 9.15219C12.0001 8.92949 11.875 8.62744 11.875 8.3125ZM13.0625 16.625C12.7476 16.625 12.4455 16.7501 12.2228 16.9728C12.0001 17.1955 11.875 17.4976 11.875 17.8125C11.875 18.1274 12.0001 18.4295 12.2228 18.6522C12.4455 18.8749 12.7476 19 13.0625 19H34.4375C34.7524 19 35.0545 18.8749 35.2772 18.6522C35.4999 18.4295 35.625 18.1274 35.625 17.8125C35.625 17.4976 35.4999 17.1955 35.2772 16.9728C35.0545 16.7501 34.7524 16.625 34.4375 16.625H13.0625ZM13.0625 26.125C12.7476 26.125 12.4455 26.2501 12.2228 26.4728C12.0001 26.6955 11.875 26.9976 11.875 27.3125C11.875 27.6274 12.0001 27.9295 12.2228 28.1522C12.4455 28.3749 12.7476 28.5 13.0625 28.5H34.4375C34.7524 28.5 35.0545 28.3749 35.2772 28.1522C35.4999 27.9295 35.625 27.6274 35.625 27.3125C35.625 26.9976 35.4999 26.6955 35.2772 26.4728C35.0545 26.2501 34.7524 26.125 34.4375 26.125H13.0625Z" fill="#020E33"/>
<path fill-rule="evenodd" clip-rule="evenodd" d="M3.5625 16.625C3.5625 16.3101 3.68761 16.008 3.91031 15.7853C4.13301 15.5626 4.43506 15.4375 4.75 15.4375H7.125C7.43994 15.4375 7.74199 15.5626 7.96469 15.7853C8.18739 16.008 8.3125 16.3101 8.3125 16.625V19C8.3125 19.3149 8.18739 19.617 7.96469 19.8397C7.74199 20.0624 7.43994 20.1875 7.125 20.1875H4.75C4.43506 20.1875 4.13301 20.0624 3.91031 19.8397C3.68761 19.617 3.5625 19.3149 3.5625 19V16.625ZM4.75 16.625H7.125V19H4.75V16.625ZM4.75 24.9375C4.43506 24.9375 4.13301 25.0626 3.91031 25.2853C3.68761 25.508 3.5625 25.8101 3.5625 26.125V28.5C3.5625 28.8149 3.68761 29.117 3.91031 29.3397C4.13301 29.5624 4.43506 29.6875 4.75 29.6875H7.125C7.43994 29.6875 7.74199 29.5624 7.96469 29.3397C8.18739 29.117 8.3125 28.8149 8.3125 28.5V26.125C8.3125 25.8101 8.18739 25.508 7.96469 25.2853C7.74199 25.0626 7.43994 24.9375 7.125 24.9375H4.75ZM7.125 26.125H4.75V28.5H7.125V26.125Z" fill="#020E33"/>
</svg>
