<svg width="31" height="30" viewBox="0 0 31 30" fill="none" xmlns="http://www.w3.org/2000/svg">
<g clip-path="url(#clip0_164_506)">
<path d="M1.4375 18.5625C1.68614 18.5625 1.9246 18.6613 2.10041 18.8371C2.27623 19.0129 2.375 19.2514 2.375 19.5V24.1875C2.375 24.6848 2.57254 25.1617 2.92417 25.5133C3.27581 25.865 3.75272 26.0625 4.25 26.0625H26.75C27.2473 26.0625 27.7242 25.865 28.0758 25.5133C28.4275 25.1617 28.625 24.6848 28.625 24.1875V19.5C28.625 19.2514 28.7238 19.0129 28.8996 18.8371C29.0754 18.6613 29.3139 18.5625 29.5625 18.5625C29.8111 18.5625 30.0496 18.6613 30.2254 18.8371C30.4012 19.0129 30.5 19.2514 30.5 19.5V24.1875C30.5 25.1821 30.1049 26.1359 29.4016 26.8392C28.6984 27.5424 27.7446 27.9375 26.75 27.9375H4.25C3.25544 27.9375 2.30161 27.5424 1.59835 26.8392C0.895088 26.1359 0.5 25.1821 0.5 24.1875V19.5C0.5 19.2514 0.598772 19.0129 0.774587 18.8371C0.950403 18.6613 1.18886 18.5625 1.4375 18.5625Z" fill="#F7FBFF"/>
<path d="M14.8365 22.2262C14.9235 22.3136 15.027 22.3828 15.1409 22.4301C15.2548 22.4773 15.3769 22.5017 15.5002 22.5017C15.6235 22.5017 15.7456 22.4773 15.8595 22.4301C15.9734 22.3828 16.0769 22.3136 16.164 22.2262L21.789 16.6012C21.965 16.4252 22.0639 16.1865 22.0639 15.9375C22.0639 15.6885 21.965 15.4498 21.789 15.2737C21.6129 15.0977 21.3742 14.9988 21.1252 14.9988C20.8763 14.9988 20.6375 15.0977 20.4615 15.2737L16.4377 19.2994V2.8125C16.4377 2.56386 16.3389 2.3254 16.1631 2.14959C15.9873 1.97377 15.7488 1.875 15.5002 1.875C15.2516 1.875 15.0131 1.97377 14.8373 2.14959C14.6615 2.3254 14.5627 2.56386 14.5627 2.8125V19.2994L10.539 15.2737C10.3629 15.0977 10.1242 14.9988 9.87521 14.9988C9.62625 14.9988 9.3875 15.0977 9.21146 15.2737C9.03542 15.4498 8.93652 15.6885 8.93652 15.9375C8.93652 16.1865 9.03542 16.4252 9.21146 16.6012L14.8365 22.2262Z" fill="#F7FBFF"/>
</g>
<defs>
<clipPath id="clip0_164_506">
<rect width="30" height="30" fill="white" transform="translate(0.5)"/>
</clipPath>
</defs>
</svg>
