<svg width="14" height="14" viewBox="0 0 14 14" fill="none" xmlns="http://www.w3.org/2000/svg">
<path fill-rule="evenodd" clip-rule="evenodd" d="M7 2C4.23958 2 2 4.23958 2 7C2 9.76042 4.23958 12 7 12C9.755 12 12 9.76042 12 7C12 4.23958 9.755 2 7 2ZM10.3025 4.30458C10.9181 5.05431 11.2588 5.99204 11.2679 6.96208C11.1271 6.935 9.71708 6.6475 8.29625 6.82667C8.26333 6.75583 8.23625 6.68 8.20375 6.60417C8.11538 6.39558 8.02146 6.1894 7.92208 5.98583C9.49458 5.34583 10.2104 4.42417 10.3025 4.30458V4.30458ZM7 2.73792C8.08458 2.73792 9.07708 3.14417 9.83083 3.81125C9.755 3.91958 9.10958 4.78208 7.59125 5.35125C6.89125 4.06625 6.11625 3.01375 5.99667 2.85125C6.32555 2.77445 6.66227 2.73628 7 2.7375V2.73792ZM5.18333 3.13875C5.29708 3.29083 6.05625 4.34833 6.76667 5.60625C4.77083 6.13792 3.00833 6.12708 2.81875 6.12708C3.09542 4.80375 3.99042 3.70292 5.18333 3.13875ZM2.72667 7.00542V6.87542C2.91125 6.88083 4.9825 6.90792 7.11417 6.26792C7.23875 6.50667 7.3525 6.75042 7.46083 6.99458C7.40667 7.01083 7.34708 7.02708 7.29292 7.04333C5.09125 7.75375 3.91958 9.695 3.82208 9.85792C3.11684 9.07521 2.72658 8.05898 2.72667 7.00542V7.00542ZM7 11.2733C6.01292 11.2733 5.10208 10.9371 4.38083 10.3733C4.45667 10.2158 5.32417 8.54542 7.73208 7.705C7.74292 7.69958 7.74875 7.69958 7.75917 7.69417C8.36125 9.25042 8.605 10.5575 8.67042 10.9317C8.155 11.1542 7.59125 11.2733 7 11.2733ZM9.38083 10.5413C9.3375 10.2808 9.10958 9.03375 8.55083 7.49875C9.89042 7.2875 11.0617 7.63458 11.2083 7.68333C11.0237 8.87083 10.3404 9.89583 9.38083 10.5413Z" fill="black"/>
</svg>
