<svg width="14" height="14" viewBox="0 0 14 14" fill="none" xmlns="http://www.w3.org/2000/svg">
<path d="M6.99967 2.8125C4.69967 2.8125 2.83301 4.67917 2.83301 6.97917C2.83301 9.27917 4.69967 11.1458 6.99967 11.1458H9.08301V10.3125H6.99967C5.19134 10.3125 3.66634 8.7875 3.66634 6.97917C3.66634 5.17083 5.19134 3.64583 6.99967 3.64583C8.80801 3.64583 10.333 5.17083 10.333 6.97917V7.575C10.333 7.90417 10.0372 8.22917 9.70801 8.22917C9.37884 8.22917 9.08301 7.90417 9.08301 7.575V6.97917C9.08301 5.82917 8.14967 4.89583 6.99967 4.89583C5.84967 4.89583 4.91634 5.82917 4.91634 6.97917C4.91634 8.12917 5.84967 9.0625 6.99967 9.0625C7.57467 9.0625 8.09967 8.82917 8.47467 8.45C8.74551 8.82083 9.21217 9.0625 9.70801 9.0625C10.5288 9.0625 11.1663 8.39583 11.1663 7.575V6.97917C11.1663 4.67917 9.29967 2.8125 6.99967 2.8125V2.8125ZM6.99967 8.22917C6.30801 8.22917 5.74967 7.67083 5.74967 6.97917C5.74967 6.2875 6.30801 5.72917 6.99967 5.72917C7.69134 5.72917 8.24967 6.2875 8.24967 6.97917C8.24967 7.67083 7.69134 8.22917 6.99967 8.22917Z" fill="black"/>
</svg>
