<svg width="38" height="38" viewBox="0 0 38 38" fill="none" xmlns="http://www.w3.org/2000/svg">
<g clip-path="url(#clip0_115_404)">
<path d="M30.5283 0.346753C30.3056 0.124131 30.0036 -0.000930786 29.6887 -0.000930786C29.3738 -0.000930786 29.0718 0.124131 28.8492 0.346753L24.9375 4.25838L33.7416 13.0625L37.6533 9.15325C37.7639 9.04294 37.8516 8.9119 37.9115 8.76763C37.9713 8.62336 38.0021 8.4687 38.0021 8.3125C38.0021 8.15631 37.9713 8.00164 37.9115 7.85737C37.8516 7.7131 37.7639 7.58206 37.6533 7.47175L30.5283 0.346753V0.346753ZM32.0625 14.7416L23.2584 5.9375L7.8209 21.375H8.31253C8.62747 21.375 8.92952 21.5001 9.15222 21.7228C9.37492 21.9455 9.50003 22.2476 9.50003 22.5625V23.75H10.6875C11.0025 23.75 11.3045 23.8751 11.5272 24.0978C11.7499 24.3205 11.875 24.6226 11.875 24.9375V26.125H13.0625C13.3775 26.125 13.6795 26.2501 13.9022 26.4728C14.1249 26.6955 14.25 26.9976 14.25 27.3125V28.5H15.4375C15.7525 28.5 16.0545 28.6251 16.2772 28.8478C16.4999 29.0705 16.625 29.3726 16.625 29.6875V30.1791L32.0625 14.7416V14.7416ZM14.326 32.4781C14.2761 32.3452 14.2503 32.2045 14.25 32.0625V30.875H13.0625C12.7476 30.875 12.4455 30.7499 12.2228 30.5272C12.0001 30.3045 11.875 30.0024 11.875 29.6875V28.5H10.6875C10.3726 28.5 10.0705 28.3749 9.84784 28.1522C9.62514 27.9295 9.50003 27.6274 9.50003 27.3125V26.125H8.31253C7.99758 26.125 7.69554 25.9999 7.47284 25.7772C7.25014 25.5545 7.12503 25.2524 7.12503 24.9375V23.75H5.93753C5.79555 23.7498 5.65477 23.724 5.5219 23.674L5.09678 24.0968C4.98361 24.2107 4.89473 24.3465 4.83553 24.4958L0.0855277 36.3708C-0.000852629 36.5866 -0.0219984 36.823 0.0247118 37.0507C0.071422 37.2784 0.183934 37.4874 0.348299 37.6517C0.512665 37.8161 0.721655 37.9286 0.949361 37.9753C1.17707 38.022 1.41348 38.0009 1.62928 37.9145L13.5043 33.1645C13.6536 33.1053 13.7893 33.0164 13.9033 32.9033L14.326 32.4805V32.4781Z" fill="#020E33"/>
</g>
<defs>
<clipPath id="clip0_115_404">
<rect width="38" height="38" fill="white"/>
</clipPath>
</defs>
</svg>
