<svg width="14" height="14" viewBox="0 0 14 14" fill="none" xmlns="http://www.w3.org/2000/svg">
<path fill-rule="evenodd" clip-rule="evenodd" d="M5.11074 2.44413C5.59949 2.42163 5.75533 2.41663 7.00033 2.41663C8.24532 2.41663 8.40116 2.42204 8.88949 2.44413C9.37783 2.46621 9.71116 2.54413 10.0028 2.65704C10.3082 2.77246 10.5853 2.95288 10.8145 3.18621C11.0478 3.41496 11.2278 3.69163 11.3428 3.99746C11.4562 4.28913 11.5337 4.62246 11.5562 5.10996C11.5787 5.59954 11.5837 5.75538 11.5837 6.99996C11.5837 8.24496 11.5782 8.40079 11.5562 8.88954C11.5341 9.37704 11.4562 9.71038 11.3428 10.002C11.2278 10.3079 11.0475 10.585 10.8145 10.8141C10.5853 11.0475 10.3082 11.2275 10.0028 11.3425C9.71116 11.4558 9.37782 11.5333 8.89032 11.5558C8.40116 11.5783 8.24532 11.5833 7.00033 11.5833C5.75533 11.5833 5.59949 11.5779 5.11074 11.5558C4.62324 11.5337 4.28991 11.4558 3.99824 11.3425C3.69238 11.2274 3.41525 11.0471 3.18616 10.8141C2.95298 10.5852 2.77254 10.3082 2.65741 10.0025C2.54449 9.71079 2.46699 9.37746 2.44449 8.88996C2.42199 8.40038 2.41699 8.24454 2.41699 6.99996C2.41699 5.75496 2.42241 5.59913 2.44449 5.11079C2.46658 4.62246 2.54449 4.28913 2.65741 3.99746C2.77271 3.69166 2.95329 3.41467 3.18658 3.18579C3.41534 2.95267 3.69219 2.77223 3.99783 2.65704C4.28949 2.54413 4.62283 2.46663 5.11033 2.44413H5.11074ZM8.85241 3.26913C8.36907 3.24704 8.22407 3.24246 7.00033 3.24246C5.77658 3.24246 5.63158 3.24704 5.14824 3.26913C4.70116 3.28954 4.45866 3.36413 4.29699 3.42704C4.08324 3.51038 3.93033 3.60913 3.76991 3.76954C3.61784 3.91748 3.50082 4.09758 3.42741 4.29663C3.36449 4.45829 3.28991 4.70079 3.26949 5.14788C3.24741 5.63121 3.24283 5.77621 3.24283 6.99996C3.24283 8.22371 3.24741 8.36871 3.26949 8.85204C3.28991 9.29913 3.36449 9.54163 3.42741 9.70329C3.50074 9.90204 3.61783 10.0825 3.76991 10.2304C3.91783 10.3825 4.09824 10.4995 4.29699 10.5729C4.45866 10.6358 4.70116 10.7104 5.14824 10.7308C5.63158 10.7529 5.77616 10.7575 7.00033 10.7575C8.22449 10.7575 8.36907 10.7529 8.85241 10.7308C9.29949 10.7104 9.54199 10.6358 9.70366 10.5729C9.91741 10.4895 10.0703 10.3908 10.2307 10.2304C10.3828 10.0825 10.4999 9.90204 10.5732 9.70329C10.6362 9.54163 10.7107 9.29913 10.7312 8.85204C10.7532 8.36871 10.7578 8.22371 10.7578 6.99996C10.7578 5.77621 10.7532 5.63121 10.7312 5.14788C10.7107 4.70079 10.6362 4.45829 10.5732 4.29663C10.4899 4.08288 10.3912 3.92996 10.2307 3.76954C10.0828 3.61749 9.9027 3.50046 9.70366 3.42704C9.54199 3.36413 9.29949 3.28954 8.85241 3.26913V3.26913ZM6.41491 8.41288C6.74185 8.54897 7.1059 8.56734 7.44488 8.46484C7.78386 8.36235 8.07674 8.14534 8.2735 7.85089C8.47025 7.55645 8.55868 7.20282 8.52368 6.85042C8.48867 6.49802 8.33241 6.1687 8.08158 5.91871C7.92167 5.75891 7.72833 5.63655 7.51546 5.56044C7.3026 5.48433 7.0755 5.45636 6.85053 5.47855C6.62556 5.50074 6.40831 5.57253 6.21441 5.68876C6.02051 5.80499 5.8548 5.96277 5.7292 6.15073C5.6036 6.33869 5.52124 6.55216 5.48804 6.77578C5.45484 6.99939 5.47164 7.22758 5.53722 7.44392C5.6028 7.66027 5.71553 7.85938 5.86729 8.02693C6.01906 8.19447 6.20609 8.32629 6.41491 8.41288ZM5.33449 5.33413C5.55325 5.11537 5.81296 4.94184 6.09878 4.82344C6.38461 4.70505 6.69095 4.64411 7.00033 4.64411C7.3097 4.64411 7.61604 4.70505 7.90187 4.82344C8.18769 4.94184 8.4474 5.11537 8.66616 5.33413C8.88492 5.55289 9.05845 5.81259 9.17684 6.09842C9.29523 6.38424 9.35617 6.69059 9.35617 6.99996C9.35617 7.30933 9.29523 7.61568 9.17684 7.9015C9.05845 8.18733 8.88492 8.44703 8.66616 8.66579C8.22435 9.1076 7.62513 9.3558 7.00033 9.3558C6.37552 9.3558 5.7763 9.1076 5.33449 8.66579C4.89269 8.22399 4.64448 7.62477 4.64448 6.99996C4.64448 6.37515 4.89269 5.77593 5.33449 5.33413V5.33413ZM9.87866 4.99496C9.93287 4.94382 9.97627 4.88233 10.0063 4.81411C10.0363 4.7459 10.0523 4.67236 10.0534 4.59785C10.0545 4.52333 10.0406 4.44935 10.0126 4.3803C9.98459 4.31124 9.943 4.24851 9.89031 4.19581C9.83761 4.14311 9.77488 4.10152 9.70582 4.07351C9.63676 4.04549 9.56279 4.03162 9.48827 4.0327C9.41375 4.03379 9.34021 4.04981 9.272 4.07983C9.20379 4.10985 9.1423 4.15325 9.09116 4.20746C8.9917 4.31289 8.93725 4.45293 8.93937 4.59785C8.94148 4.74277 8.99999 4.88116 9.10247 4.98364C9.20496 5.08613 9.34335 5.14464 9.48827 5.14675C9.63319 5.14886 9.77323 5.09441 9.87866 4.99496V4.99496Z" fill="black"/>
</svg>
