<svg width="14" height="14" viewBox="0 0 14 14" fill="none" xmlns="http://www.w3.org/2000/svg">
<path fill-rule="evenodd" clip-rule="evenodd" d="M2.41699 3.18246C2.41699 2.97935 2.49768 2.78456 2.6413 2.64093C2.78492 2.49731 2.97971 2.41663 3.18283 2.41663H10.817C10.9176 2.41646 11.0173 2.43615 11.1104 2.47457C11.2034 2.51299 11.288 2.56938 11.3592 2.64052C11.4304 2.71165 11.4869 2.79614 11.5254 2.88913C11.5639 2.98213 11.5837 3.0818 11.5837 3.18246V10.8166C11.5838 10.9173 11.564 11.017 11.5256 11.1101C11.4871 11.2031 11.4307 11.2876 11.3595 11.3588C11.2883 11.43 11.2038 11.4865 11.1108 11.525C11.0178 11.5636 10.9181 11.5833 10.8174 11.5833H3.18283C3.08222 11.5833 2.9826 11.5635 2.88966 11.525C2.79672 11.4864 2.71227 11.43 2.64115 11.3588C2.57003 11.2877 2.51363 11.2032 2.47517 11.1102C2.43671 11.0173 2.41694 10.9176 2.41699 10.817V3.18246ZM6.04533 5.91163H7.28658V6.53496C7.46574 6.17663 7.92408 5.85413 8.61283 5.85413C9.93324 5.85413 10.2462 6.56788 10.2462 7.87746V10.3033H8.90991V8.17579C8.90991 7.42996 8.73074 7.00913 8.27574 7.00913C7.64449 7.00913 7.38199 7.46288 7.38199 8.17579V10.3033H6.04533V5.91163ZM3.75366 10.2462H5.09033V5.85413H3.75366V10.2458V10.2462ZM5.28158 4.42163C5.2841 4.53607 5.26373 4.64987 5.22168 4.75634C5.17962 4.86281 5.11672 4.95981 5.03667 5.04164C4.95662 5.12347 4.86103 5.18849 4.75552 5.23288C4.65 5.27727 4.53668 5.30013 4.4222 5.30013C4.30773 5.30013 4.1944 5.27727 4.08889 5.23288C3.98337 5.18849 3.88778 5.12347 3.80773 5.04164C3.72768 4.95981 3.66478 4.86281 3.62273 4.75634C3.58067 4.64987 3.56031 4.53607 3.56283 4.42163C3.56777 4.19698 3.66049 3.98321 3.82111 3.82608C3.98174 3.66895 4.1975 3.58097 4.4222 3.58097C4.6469 3.58097 4.86266 3.66895 5.02329 3.82608C5.18392 3.98321 5.27663 4.19698 5.28158 4.42163V4.42163Z" fill="black"/>
</svg>
