<svg width="14" height="14" viewBox="0 0 14 14" fill="none" xmlns="http://www.w3.org/2000/svg">
<g clip-path="url(#clip0_142_416)">
<path fill-rule="evenodd" clip-rule="evenodd" d="M9.25625 7.99252C9.13208 7.93043 8.52333 7.63127 8.41 7.5896C8.29667 7.54835 8.21417 7.52793 8.13125 7.6521C8.04875 7.77543 7.81167 8.0546 7.73958 8.1371C7.66708 8.22002 7.595 8.23002 7.47125 8.16835C7.3475 8.10585 6.94833 7.97543 6.47542 7.55377C6.1075 7.22543 5.85875 6.82002 5.78667 6.69585C5.71458 6.5721 5.77875 6.50502 5.84083 6.44335C5.89667 6.38793 5.96458 6.29877 6.02667 6.22668C6.08875 6.15418 6.10917 6.10252 6.15042 6.0196C6.19208 5.9371 6.17125 5.86502 6.14 5.80293C6.10917 5.74085 5.86167 5.13127 5.75833 4.88335C5.65792 4.6421 5.55583 4.67502 5.48 4.67085C5.4075 4.66752 5.325 4.66668 5.2425 4.66668C5.16 4.66668 5.02583 4.69752 4.9125 4.82168C4.79875 4.94543 4.47917 5.24502 4.47917 5.8546C4.47917 6.46377 4.9225 7.05252 4.98458 7.13543C5.04667 7.21793 5.8575 8.46877 7.09958 9.00502C7.39542 9.13252 7.62583 9.20877 7.80542 9.26543C8.10208 9.36002 8.37208 9.34668 8.58542 9.3146C8.82292 9.27918 9.31792 9.01502 9.42125 8.72585C9.52417 8.43668 9.52417 8.18877 9.49333 8.1371C9.4625 8.08543 9.38 8.0546 9.25583 7.99252H9.25625ZM6.99708 11.0771H6.99542C6.25768 11.0772 5.53349 10.8789 4.89875 10.5029L4.74875 10.4138L3.18958 10.8229L3.60583 9.30293L3.50792 9.1471C3.09547 8.49058 2.87721 7.73076 2.87833 6.95543C2.87917 4.6846 4.72667 2.8371 6.99875 2.8371C8.09875 2.8371 9.13292 3.26627 9.91042 4.0446C10.2939 4.42651 10.5979 4.88067 10.8047 5.38081C11.0115 5.88095 11.1171 6.41713 11.1154 6.95835C11.1146 9.22918 9.26708 11.0771 6.99708 11.0771V11.0771ZM10.5021 3.45335C10.043 2.99124 9.49676 2.62482 8.89504 2.37535C8.29331 2.12588 7.64806 1.9983 6.99667 2.00002C4.26583 2.00002 2.0425 4.22293 2.04167 6.95502C2.04125 7.82835 2.26917 8.68085 2.70292 9.4321L2 12L4.62667 11.3109C5.35328 11.7067 6.16754 11.9142 6.995 11.9142H6.99708C9.72792 11.9142 11.9513 9.69127 11.9521 6.95877C11.9541 6.30763 11.827 5.66256 11.5781 5.06086C11.3292 4.45917 10.9635 3.9128 10.5021 3.45335" fill="black"/>
</g>
<defs>
<clipPath id="clip0_142_416">
<rect width="10" height="10" fill="white" transform="translate(2 2)"/>
</clipPath>
</defs>
</svg>
